STARTFONT 2.1
FONT -Monotype-Plantin-Regular-I-Normal--14-100-100-100-P-76-iso8859-5
SIZE 10 100 100
FONTBOUNDINGBOX 18 16 -2 -3

STARTPROPERTIES 24
FOUNDRY "Monotype"
FAMILY_NAME "Plantin"
WEIGHT_NAME "Regular"
SLANT "I"
SETWIDTH_NAME "Normal"
ADD_STYLE_NAME ""
PIXEL_SIZE 14
POINT_SIZE 100
RESOLUTION_X 100
RESOLUTION_Y 100
SPACING "P"
AVERAGE_WIDTH 76
CHARSET_REGISTRY "iso8859"
CHARSET_ENCODING "5"
FACE_NAME "Plantin Inclined ISO Latin Cyrillic"
_DEC_DEVICE_FONTNAMES "PS=plantin-in-latcyrillic"
COPYRIGHT "Copyright (c) 1994 Monotype Typography Ltd."
CAP_HEIGHT 11
X_HEIGHT 7
WEIGHT 10
QUAD_WIDTH 9
DEFAULT_CHAR 160
FONT_DESCENT 4
FONT_ASCENT 13
ENDPROPERTIES

CHARS 191

STARTCHAR space
ENCODING 32
SWIDTH 250 0
DWIDTH 4 0
BBX 0 0 0 0
BITMAP
ENDCHAR

STARTCHAR exclam
ENCODING 33
SWIDTH 312 0
DWIDTH 4 0
BBX 3 10 1 0
BITMAP
20
20
20
40
40
40
40
00
80
80
ENDCHAR

STARTCHAR quotedbl
ENCODING 34
SWIDTH 417 0
DWIDTH 6 0
BBX 5 4 1 6
BITMAP
48
48
90
90
ENDCHAR

STARTCHAR numbersign
ENCODING 35
SWIDTH 500 0
DWIDTH 7 0
BBX 8 10 0 0
BITMAP
12
12
12
7F
24
24
FE
48
48
48
ENDCHAR

STARTCHAR dollar
ENCODING 36
SWIDTH 490 0
DWIDTH 7 0
BBX 8 11 0 -1
BITMAP
0A
0E
11
20
20
1C
02
02
84
78
28
ENDCHAR

STARTCHAR percent
ENCODING 37
SWIDTH 729 0
DWIDTH 10 0
BBX 9 10 1 0
BITMAP
2100
5200
9200
A400
4800
0900
1280
2480
2500
4200
ENDCHAR

STARTCHAR ampersand
ENCODING 38
SWIDTH 948 0
DWIDTH 13 0
BBX 13 10 1 0
BITMAP
0E00
1100
2000
2010
3388
4470
8240
8040
4180
3E00
ENDCHAR

STARTCHAR quoteright
ENCODING 39
SWIDTH 313 0
DWIDTH 4 0
BBX 3 4 1 6
BITMAP
20
60
20
C0
ENDCHAR

STARTCHAR parenleft
ENCODING 40
SWIDTH 448 0
DWIDTH 6 0
BBX 5 13 2 -3
BITMAP
08
10
20
40
40
80
80
80
80
80
40
40
20
ENDCHAR

STARTCHAR parenright
ENCODING 41
SWIDTH 437 0
DWIDTH 6 0
BBX 5 13 1 -3
BITMAP
20
10
10
08
08
08
08
08
10
10
20
40
80
ENDCHAR

STARTCHAR asterisk
ENCODING 42
SWIDTH 521 0
DWIDTH 7 0
BBX 5 6 1 4
BITMAP
20
20
F8
50
D8
88
ENDCHAR

STARTCHAR plus
ENCODING 43
SWIDTH 667 0
DWIDTH 9 0
BBX 7 7 1 1
BITMAP
10
10
10
FE
10
10
10
ENDCHAR

STARTCHAR comma
ENCODING 44
SWIDTH 313 0
DWIDTH 4 0
BBX 3 4 1 -2
BITMAP
20
60
20
C0
ENDCHAR

STARTCHAR minus
ENCODING 45
SWIDTH 667 0
DWIDTH 9 0
BBX 7 1 1 4
BITMAP
FE
ENDCHAR

STARTCHAR period
ENCODING 46
SWIDTH 312 0
DWIDTH 4 0
BBX 1 2 1 0
BITMAP
80
80
ENDCHAR

STARTCHAR slash
ENCODING 47
SWIDTH 281 0
DWIDTH 4 0
BBX 5 10 0 0
BITMAP
08
08
10
10
20
20
40
40
80
80
ENDCHAR

STARTCHAR zero
ENCODING 48
SWIDTH 521 0
DWIDTH 7 0
BBX 6 10 1 0
BITMAP
18
24
44
44
44
88
88
88
90
60
ENDCHAR

STARTCHAR one
ENCODING 49
SWIDTH 521 0
DWIDTH 7 0
BBX 4 10 2 0
BITMAP
10
30
10
10
20
20
20
40
40
E0
ENDCHAR

STARTCHAR two
ENCODING 50
SWIDTH 521 0
DWIDTH 7 0
BBX 6 10 1 0
BITMAP
38
44
04
04
08
08
10
20
44
F8
ENDCHAR

STARTCHAR three
ENCODING 51
SWIDTH 521 0
DWIDTH 7 0
BBX 7 10 0 0
BITMAP
1C
22
02
04
38
04
04
04
88
70
ENDCHAR

STARTCHAR four
ENCODING 52
SWIDTH 521 0
DWIDTH 7 0
BBX 7 10 0 0
BITMAP
02
06
0A
12
24
24
44
FE
08
08
ENDCHAR

STARTCHAR five
ENCODING 53
SWIDTH 521 0
DWIDTH 7 0
BBX 7 10 1 0
BITMAP
3E
20
40
70
08
04
04
04
88
70
ENDCHAR

STARTCHAR six
ENCODING 54
SWIDTH 521 0
DWIDTH 7 0
BBX 7 10 1 0
BITMAP
1E
20
40
58
E4
84
84
84
88
70
ENDCHAR

STARTCHAR seven
ENCODING 55
SWIDTH 521 0
DWIDTH 7 0
BBX 6 10 1 0
BITMAP
7C
84
08
08
10
10
20
20
40
40
ENDCHAR

STARTCHAR eight
ENCODING 56
SWIDTH 521 0
DWIDTH 7 0
BBX 7 10 1 0
BITMAP
1C
22
42
44
38
48
84
84
88
70
ENDCHAR

STARTCHAR nine
ENCODING 57
SWIDTH 521 0
DWIDTH 7 0
BBX 7 10 0 0
BITMAP
1C
22
42
42
42
4E
34
04
08
F0
ENDCHAR

STARTCHAR colon
ENCODING 58
SWIDTH 312 0
DWIDTH 4 0
BBX 2 6 2 0
BITMAP
40
40
00
00
80
80
ENDCHAR

STARTCHAR semicolon
ENCODING 59
SWIDTH 312 0
DWIDTH 4 0
BBX 4 8 0 -2
BITMAP
10
10
00
00
20
60
20
C0
ENDCHAR

STARTCHAR less
ENCODING 60
SWIDTH 667 0
DWIDTH 9 0
BBX 7 7 1 1
BITMAP
02
0C
30
C0
30
0C
02
ENDCHAR

STARTCHAR equal
ENCODING 61
SWIDTH 667 0
DWIDTH 9 0
BBX 7 3 1 3
BITMAP
FE
00
FE
ENDCHAR

STARTCHAR greater
ENCODING 62
SWIDTH 667 0
DWIDTH 9 0
BBX 7 7 1 1
BITMAP
80
60
18
06
18
60
80
ENDCHAR

STARTCHAR question
ENCODING 63
SWIDTH 406 0
DWIDTH 6 0
BBX 5 10 1 0
BITMAP
30
48
08
08
08
70
40
00
80
80
ENDCHAR

STARTCHAR at
ENCODING 64
SWIDTH 917 0
DWIDTH 13 0
BBX 12 13 1 -3
BITMAP
0FC0
3020
4010
4390
8490
8890
9190
9120
9760
5990
4010
3060
0F80
ENDCHAR

STARTCHAR A
ENCODING 65
SWIDTH 729 0
DWIDTH 10 0
BBX 10 10 -1 0
BITMAP
0080
0180
0280
0480
0880
0F80
1080
2080
4080
E1C0
ENDCHAR

STARTCHAR B
ENCODING 66
SWIDTH 698 0
DWIDTH 10 0
BBX 9 10 0 0
BITMAP
3F00
1080
1080
2100
3E00
2100
2080
4080
4100
FE00
ENDCHAR

STARTCHAR C
ENCODING 67
SWIDTH 708 0
DWIDTH 10 0
BBX 10 10 1 0
BITMAP
07C0
1880
2080
4000
4000
8000
8000
8100
4200
3C00
ENDCHAR

STARTCHAR D
ENCODING 68
SWIDTH 781 0
DWIDTH 11 0
BBX 10 10 0 0
BITMAP
3F00
1080
1040
2040
2040
2040
2080
4080
4100
FE00
ENDCHAR

STARTCHAR E
ENCODING 69
SWIDTH 656 0
DWIDTH 10 0
BBX 11 10 0 0
BITMAP
3FE0
1040
1040
2100
3E00
2200
2000
4080
4100
FF00
ENDCHAR

STARTCHAR F
ENCODING 70
SWIDTH 635 0
DWIDTH 9 0
BBX 11 10 0 0
BITMAP
3FE0
1040
1040
2100
3E00
2200
2000
4000
4000
E000
ENDCHAR

STARTCHAR G
ENCODING 71
SWIDTH 792 0
DWIDTH 11 0
BBX 10 10 1 0
BITMAP
07C0
1880
2080
4000
4000
8380
8100
8100
4100
3E00
ENDCHAR

STARTCHAR H
ENCODING 72
SWIDTH 823 0
DWIDTH 12 0
BBX 12 10 0 0
BITMAP
3870
1020
1020
2040
3FC0
2040
2040
4080
4080
E1C0
ENDCHAR

STARTCHAR I
ENCODING 73
SWIDTH 375 0
DWIDTH 5 0
BBX 5 10 0 0
BITMAP
38
10
10
20
20
20
20
40
40
E0
ENDCHAR

STARTCHAR J
ENCODING 74
SWIDTH 479 0
DWIDTH 7 0
BBX 8 13 -1 -3
BITMAP
19
27
32
02
1F
04
04
04
04
08
08
90
60
ENDCHAR

STARTCHAR K
ENCODING 75
SWIDTH 771 0
DWIDTH 11 0
BBX 10 10 1 0
BITMAP
39C0
1080
1100
2600
2800
3000
2800
4400
4200
E380
ENDCHAR

STARTCHAR L
ENCODING 76
SWIDTH 646 0
DWIDTH 9 0
BBX 8 10 0 0
BITMAP
38
10
10
20
20
20
20
41
42
FE
ENDCHAR

STARTCHAR M
ENCODING 77
SWIDTH 979 0
DWIDTH 13 0
BBX 13 10 0 0
BITMAP
3038
1030
1850
28A0
28A0
2920
2620
4640
4440
E4E0
ENDCHAR

STARTCHAR N
ENCODING 78
SWIDTH 812 0
DWIDTH 11 0
BBX 12 10 0 0
BITMAP
3070
1820
1820
2420
2440
2240
2240
4180
4180
E0C0
ENDCHAR

STARTCHAR O
ENCODING 79
SWIDTH 792 0
DWIDTH 11 0
BBX 10 10 1 0
BITMAP
0F00
1080
2040
4040
4040
8080
8080
8100
4200
3C00
ENDCHAR

STARTCHAR P
ENCODING 80
SWIDTH 615 0
DWIDTH 9 0
BBX 9 10 0 0
BITMAP
3F00
1080
1080
2080
2100
2E00
2000
4000
4000
E000
ENDCHAR

STARTCHAR Q
ENCODING 81
SWIDTH 792 0
DWIDTH 11 0
BBX 10 13 1 -3
BITMAP
0F00
1080
2040
4040
4040
8080
8080
8100
4200
3C00
1000
18C0
6F80
ENDCHAR

STARTCHAR R
ENCODING 82
SWIDTH 698 0
DWIDTH 10 0
BBX 10 10 0 0
BITMAP
3F80
1040
1040
2080
3F00
2400
2200
4200
4100
E1C0
ENDCHAR

STARTCHAR S
ENCODING 83
SWIDTH 604 0
DWIDTH 8 0
BBX 8 10 0 0
BITMAP
1F
22
22
20
18
04
02
42
44
F8
ENDCHAR

STARTCHAR T
ENCODING 84
SWIDTH 667 0
DWIDTH 9 0
BBX 9 10 1 0
BITMAP
FF80
8880
8880
1000
1000
1000
1000
2000
2000
7000
ENDCHAR

STARTCHAR U
ENCODING 85
SWIDTH 771 0
DWIDTH 11 0
BBX 10 10 1 0
BITMAP
E1C0
4080
4080
4080
8100
8100
8100
8200
4400
3800
ENDCHAR

STARTCHAR V
ENCODING 86
SWIDTH 719 0
DWIDTH 10 0
BBX 9 10 2 0
BITMAP
E380
4100
4200
4400
4400
4800
5000
5000
6000
4000
ENDCHAR

STARTCHAR W
ENCODING 87
SWIDTH 979 0
DWIDTH 14 0
BBX 13 10 2 0
BITMAP
EDB8
4510
4620
4640
4440
4C80
5500
5500
6600
4400
ENDCHAR

STARTCHAR X
ENCODING 88
SWIDTH 781 0
DWIDTH 11 0
BBX 10 10 0 0
BITMAP
39C0
1080
0900
0A00
0400
0C00
1200
2200
4100
E380
ENDCHAR

STARTCHAR Y
ENCODING 89
SWIDTH 719 0
DWIDTH 10 0
BBX 9 10 2 0
BITMAP
E380
4100
4200
2400
2800
1000
1000
2000
2000
7000
ENDCHAR

STARTCHAR Z
ENCODING 90
SWIDTH 625 0
DWIDTH 9 0
BBX 10 10 0 0
BITMAP
1FC0
2080
0100
0200
0400
0800
1000
2000
4100
FE00
ENDCHAR

STARTCHAR bracketleft
ENCODING 91
SWIDTH 375 0
DWIDTH 5 0
BBX 5 13 1 -3
BITMAP
18
10
10
20
20
20
20
40
40
40
80
80
C0
ENDCHAR

STARTCHAR backslash
ENCODING 92
SWIDTH 281 0
DWIDTH 4 0
BBX 3 10 1 0
BITMAP
80
80
80
40
40
40
40
20
20
20
ENDCHAR

STARTCHAR bracketright
ENCODING 93
SWIDTH 375 0
DWIDTH 5 0
BBX 5 13 1 -3
BITMAP
18
08
08
10
10
10
20
20
20
20
40
40
C0
ENDCHAR

STARTCHAR asciicircum
ENCODING 94
SWIDTH 427 0
DWIDTH 6 0
BBX 6 5 0 5
BITMAP
10
30
38
48
84
ENDCHAR

STARTCHAR underscore
ENCODING 95
SWIDTH 500 0
DWIDTH 7 0
BBX 7 1 0 -3
BITMAP
FE
ENDCHAR

STARTCHAR quoteleft
ENCODING 96
SWIDTH 312 0
DWIDTH 4 0
BBX 3 4 1 6
BITMAP
60
80
C0
80
ENDCHAR

STARTCHAR a
ENCODING 97
SWIDTH 521 0
DWIDTH 7 0
BBX 7 7 1 0
BITMAP
1A
24
44
88
88
9A
6C
ENDCHAR

STARTCHAR b
ENCODING 98
SWIDTH 469 0
DWIDTH 7 0
BBX 6 10 1 0
BITMAP
20
60
20
58
64
44
44
84
88
70
ENDCHAR

STARTCHAR c
ENCODING 99
SWIDTH 385 0
DWIDTH 5 0
BBX 5 7 1 0
BITMAP
38
48
80
80
80
90
60
ENDCHAR

STARTCHAR d
ENCODING 100
SWIDTH 500 0
DWIDTH 7 0
BBX 7 10 1 0
BITMAP
02
06
02
34
4C
84
84
88
9A
6C
ENDCHAR

STARTCHAR e
ENCODING 101
SWIDTH 385 0
DWIDTH 5 0
BBX 5 7 1 0
BITMAP
30
48
88
F0
80
90
60
ENDCHAR

STARTCHAR f
ENCODING 102
SWIDTH 281 0
DWIDTH 4 0
BBX 8 13 -2 -3
BITMAP
03
05
04
0E
04
08
08
08
10
10
10
90
60
ENDCHAR

STARTCHAR g
ENCODING 103
SWIDTH 448 0
DWIDTH 6 0
BBX 7 10 0 -3
BITMAP
1A
24
44
48
30
40
70
88
88
70
ENDCHAR

STARTCHAR h
ENCODING 104
SWIDTH 521 0
DWIDTH 7 0
BBX 7 10 1 0
BITMAP
20
60
20
58
64
44
44
88
8A
8C
ENDCHAR

STARTCHAR i
ENCODING 105
SWIDTH 271 0
DWIDTH 4 0
BBX 4 10 1 0
BITMAP
10
00
00
60
A0
20
20
40
50
60
ENDCHAR

STARTCHAR j
ENCODING 106
SWIDTH 240 0
DWIDTH 3 0
BBX 6 13 -2 -3
BITMAP
04
00
00
18
28
08
08
10
10
10
20
20
C0
ENDCHAR

STARTCHAR k
ENCODING 107
SWIDTH 521 0
DWIDTH 7 0
BBX 6 10 1 0
BITMAP
20
60
20
58
64
44
78
90
94
88
ENDCHAR

STARTCHAR l
ENCODING 108
SWIDTH 240 0
DWIDTH 3 0
BBX 3 10 1 0
BITMAP
20
60
20
40
40
40
40
80
A0
40
ENDCHAR

STARTCHAR m
ENCODING 109
SWIDTH 771 0
DWIDTH 11 0
BBX 10 7 1 0
BITMAP
6D80
B680
2480
2480
4900
4940
4980
ENDCHAR

STARTCHAR n
ENCODING 110
SWIDTH 531 0
DWIDTH 7 0
BBX 8 7 0 0
BITMAP
6C
B2
22
22
44
45
46
ENDCHAR

STARTCHAR o
ENCODING 111
SWIDTH 448 0
DWIDTH 6 0
BBX 5 7 1 0
BITMAP
30
48
88
88
88
90
60
ENDCHAR

STARTCHAR p
ENCODING 112
SWIDTH 490 0
DWIDTH 7 0
BBX 7 11 0 -3
BITMAP
10
1C
72
A2
22
22
24
78
40
40
E0
ENDCHAR

STARTCHAR q
ENCODING 113
SWIDTH 448 0
DWIDTH 6 0
BBX 5 10 1 -3
BITMAP
38
48
88
88
90
90
60
20
20
70
ENDCHAR

STARTCHAR r
ENCODING 114
SWIDTH 344 0
DWIDTH 5 0
BBX 6 7 1 0
BITMAP
6C
B4
20
20
40
40
40
ENDCHAR

STARTCHAR s
ENCODING 115
SWIDTH 333 0
DWIDTH 5 0
BBX 5 7 1 0
BITMAP
38
48
40
20
10
90
E0
ENDCHAR

STARTCHAR t
ENCODING 116
SWIDTH 292 0
DWIDTH 4 0
BBX 4 8 1 0
BITMAP
20
F0
40
40
40
80
A0
C0
ENDCHAR

STARTCHAR u
ENCODING 117
SWIDTH 531 0
DWIDTH 7 0
BBX 8 7 0 0
BITMAP
62
A2
22
44
4C
55
66
ENDCHAR

STARTCHAR v
ENCODING 118
SWIDTH 521 0
DWIDTH 7 0
BBX 7 7 0 0
BITMAP
74
92
22
42
42
44
38
ENDCHAR

STARTCHAR w
ENCODING 119
SWIDTH 688 0
DWIDTH 10 0
BBX 9 7 1 0
BITMAP
7500
9480
2480
4880
4880
4900
3600
ENDCHAR

STARTCHAR x
ENCODING 120
SWIDTH 490 0
DWIDTH 7 0
BBX 7 7 0 0
BITMAP
26
58
08
10
10
2A
C4
ENDCHAR

STARTCHAR y
ENCODING 121
SWIDTH 479 0
DWIDTH 7 0
BBX 8 10 -1 -3
BITMAP
32
51
11
09
09
06
04
08
90
60
ENDCHAR

STARTCHAR z
ENCODING 122
SWIDTH 490 0
DWIDTH 7 0
BBX 7 7 1 0
BITMAP
3A
44
08
10
20
44
B8
ENDCHAR

STARTCHAR braceleft
ENCODING 123
SWIDTH 479 0
DWIDTH 7 0
BBX 6 13 2 -3
BITMAP
0C
10
20
20
20
40
80
40
40
40
80
80
60
ENDCHAR

STARTCHAR bar
ENCODING 124
SWIDTH 198 0
DWIDTH 3 0
BBX 1 13 1 -3
BITMAP
80
80
80
80
80
80
80
80
80
80
80
80
80
ENDCHAR

STARTCHAR braceright
ENCODING 125
SWIDTH 479 0
DWIDTH 7 0
BBX 6 13 0 -3
BITMAP
18
04
04
04
08
08
04
08
10
10
10
20
C0
ENDCHAR

STARTCHAR asciitilde
ENCODING 126
SWIDTH 542 0
DWIDTH 8 0
BBX 7 2 1 4
BITMAP
72
9C
ENDCHAR

STARTCHAR space
ENCODING 160
SWIDTH 250 0
DWIDTH 4 0
BBX 0 0 0 0
BITMAP
ENDCHAR

STARTCHAR afii10023
ENCODING 161
SWIDTH 656 0
DWIDTH 10 0
BBX 11 12 0 0
BITMAP
0D80
0000
3FE0
1040
1040
2100
3E00
2200
2000
4080
4100
FF00
ENDCHAR

STARTCHAR afii10051
ENCODING 162
SWIDTH 771 0
DWIDTH 10 0
BBX 10 10 0 0
BITMAP
FF80
8880
0800
0F00
1080
1040
1040
2040
2480
7300
ENDCHAR

STARTCHAR afii10052
ENCODING 163
SWIDTH 563 0
DWIDTH 7 0
BBX 9 13 0 0
BITMAP
0100
0200
0000
3F80
1080
1080
2000
2000
2000
4000
4000
4000
E000
ENDCHAR

STARTCHAR afii10053
ENCODING 164
SWIDTH 708 0
DWIDTH 10 0
BBX 9 10 1 0
BITMAP
1F00
2080
4080
8000
FC00
8000
8000
8100
4200
3C00
ENDCHAR

STARTCHAR afii10054
ENCODING 165
SWIDTH 604 0
DWIDTH 8 0
BBX 8 10 0 0
BITMAP
1F
22
22
20
18
04
02
42
44
F8
ENDCHAR

STARTCHAR afii10055
ENCODING 166
SWIDTH 375 0
DWIDTH 5 0
BBX 5 10 0 0
BITMAP
38
10
10
20
20
20
20
40
40
E0
ENDCHAR

STARTCHAR afii10056
ENCODING 167
SWIDTH 375 0
DWIDTH 5 0
BBX 6 12 0 0
BITMAP
6C
00
38
10
10
20
20
20
20
40
40
E0
ENDCHAR

STARTCHAR afii10057
ENCODING 168
SWIDTH 479 0
DWIDTH 7 0
BBX 8 13 -1 -3
BITMAP
19
27
32
02
1F
04
04
04
04
08
08
90
60
ENDCHAR

STARTCHAR afii10058
ENCODING 169
SWIDTH 927 0
DWIDTH 13 0
BBX 13 10 0 0
BITMAP
1FC0
0880
0880
1100
11F0
1108
2108
2208
A210
C7E0
ENDCHAR

STARTCHAR afii10059
ENCODING 170
SWIDTH 970 0
DWIDTH 13 0
BBX 13 10 0 0
BITMAP
39C0
1080
1080
2100
3FF0
2108
2108
4208
4210
E7E0
ENDCHAR

STARTCHAR afii10060
ENCODING 171
SWIDTH 802 0
DWIDTH 10 0
BBX 10 10 0 0
BITMAP
7F00
8880
0800
1700
1880
1040
1040
2040
2080
71C0
ENDCHAR

STARTCHAR afii10061
ENCODING 172
SWIDTH 708 0
DWIDTH 10 0
BBX 11 13 0 0
BITMAP
0100
0200
0000
3860
1080
1080
2100
3E00
2200
2100
4100
4100
E0C0
ENDCHAR

STARTCHAR hyphen
ENCODING 173
SWIDTH 365 0
DWIDTH 5 0
BBX 4 1 1 3
BITMAP
F0
ENDCHAR

STARTCHAR afii10062
ENCODING 174
SWIDTH 688 0
DWIDTH 10 0
BBX 10 13 1 0
BITMAP
0880
0700
0000
71C0
2080
2100
1100
1200
0C00
0800
0800
9000
6000
ENDCHAR

STARTCHAR afii10145
ENCODING 175
SWIDTH 813 0
DWIDTH 12 0
BBX 12 12 0 -2
BITMAP
3870
1020
1020
2040
2040
2040
2040
4080
4080
FFC0
0800
0800
ENDCHAR

STARTCHAR afii10017
ENCODING 176
SWIDTH 729 0
DWIDTH 10 0
BBX 10 10 -1 0
BITMAP
0080
0180
0280
0480
0880
0F80
1080
2080
4080
E1C0
ENDCHAR

STARTCHAR afii10018
ENCODING 177
SWIDTH 688 0
DWIDTH 9 0
BBX 9 10 0 0
BITMAP
3F80
1080
1000
2000
3E00
2100
2100
4100
4200
FC00
ENDCHAR

STARTCHAR afii10019
ENCODING 178
SWIDTH 698 0
DWIDTH 10 0
BBX 9 10 0 0
BITMAP
3F00
1080
1080
2100
3E00
2100
2080
4080
4100
FE00
ENDCHAR

STARTCHAR afii10020
ENCODING 179
SWIDTH 563 0
DWIDTH 7 0
BBX 9 10 0 0
BITMAP
3F80
1080
1080
2000
2000
2000
4000
4000
4000
E000
ENDCHAR

STARTCHAR afii10021
ENCODING 180
SWIDTH 677 0
DWIDTH 9 0
BBX 11 12 -1 -2
BITMAP
1FE0
0840
0840
0840
1040
1080
1080
2080
2080
7FC0
8040
8040
ENDCHAR

STARTCHAR afii10022
ENCODING 181
SWIDTH 656 0
DWIDTH 10 0
BBX 11 10 0 0
BITMAP
3FE0
1040
1040
2100
3E00
2200
2000
4080
4100
FF00
ENDCHAR

STARTCHAR afii10024
ENCODING 182
SWIDTH 969 0
DWIDTH 14 0
BBX 14 10 0 0
BITMAP
31CC
0890
0910
0920
07C0
0540
1920
2220
4210
C718
ENDCHAR

STARTCHAR afii10025
ENCODING 183
SWIDTH 569 0
DWIDTH 8 0
BBX 8 10 0 0
BITMAP
1E
21
01
02
1C
02
02
82
44
38
ENDCHAR

STARTCHAR afii10026
ENCODING 184
SWIDTH 813 0
DWIDTH 12 0
BBX 12 10 0 0
BITMAP
3870
1020
10E0
2140
2640
2840
3040
4080
4080
E1C0
ENDCHAR

STARTCHAR afii10027
ENCODING 185
SWIDTH 813 0
DWIDTH 12 0
BBX 12 13 0 0
BITMAP
0440
0380
0000
3870
1020
10E0
2140
2640
2840
3040
4080
4080
E1C0
ENDCHAR

STARTCHAR afii10028
ENCODING 186
SWIDTH 708 0
DWIDTH 10 0
BBX 11 10 0 0
BITMAP
3860
1080
1080
2100
3E00
2200
2100
4100
4100
E0C0
ENDCHAR

STARTCHAR afii10029
ENCODING 187
SWIDTH 718 0
DWIDTH 9 0
BBX 11 10 -1 0
BITMAP
1FE0
0840
0840
0840
1040
1080
1080
2080
A080
C1C0
ENDCHAR

STARTCHAR afii10030
ENCODING 188
SWIDTH 979 0
DWIDTH 13 0
BBX 13 10 0 0
BITMAP
3038
1030
1850
28A0
28A0
2920
2620
4640
4440
E4E0
ENDCHAR

STARTCHAR afii10031
ENCODING 189
SWIDTH 823 0
DWIDTH 12 0
BBX 12 10 0 0
BITMAP
3870
1020
1020
2040
3FC0
2040
2040
4080
4080
E1C0
ENDCHAR

STARTCHAR afii10032
ENCODING 190
SWIDTH 792 0
DWIDTH 11 0
BBX 10 10 1 0
BITMAP
0F00
1080
2040
4040
4040
8080
8080
8100
4200
3C00
ENDCHAR

STARTCHAR afii10033
ENCODING 191
SWIDTH 813 0
DWIDTH 12 0
BBX 12 10 0 0
BITMAP
3FF0
1020
1020
2040
2040
2040
2040
4080
4080
E1C0
ENDCHAR

STARTCHAR afii10034
ENCODING 192
SWIDTH 615 0
DWIDTH 9 0
BBX 9 10 0 0
BITMAP
3F00
1080
1080
2080
2100
2E00
2000
4000
4000
E000
ENDCHAR

STARTCHAR afii10035
ENCODING 193
SWIDTH 708 0
DWIDTH 10 0
BBX 10 10 1 0
BITMAP
07C0
1880
2080
4000
4000
8000
8000
8100
4200
3C00
ENDCHAR

STARTCHAR afii10036
ENCODING 194
SWIDTH 667 0
DWIDTH 9 0
BBX 9 10 1 0
BITMAP
FF80
8880
8880
1000
1000
1000
1000
2000
2000
7000
ENDCHAR

STARTCHAR afii10037
ENCODING 195
SWIDTH 688 0
DWIDTH 10 0
BBX 10 10 1 0
BITMAP
71C0
2080
2100
1100
1200
0C00
0800
0800
9000
6000
ENDCHAR

STARTCHAR afii10038
ENCODING 196
SWIDTH 917 0
DWIDTH 13 0
BBX 11 10 1 0
BITMAP
0700
0200
3FC0
4420
8420
8420
8440
7F80
0800
1C00
ENDCHAR

STARTCHAR afii10039
ENCODING 197
SWIDTH 781 0
DWIDTH 11 0
BBX 10 10 0 0
BITMAP
39C0
1080
0900
0A00
0400
0C00
1200
2200
4100
E380
ENDCHAR

STARTCHAR afii10040
ENCODING 198
SWIDTH 813 0
DWIDTH 12 0
BBX 12 12 0 -2
BITMAP
3870
1020
1020
2040
2040
2040
2040
4080
4080
FFC0
0040
0040
ENDCHAR

STARTCHAR afii10041
ENCODING 199
SWIDTH 771 0
DWIDTH 10 0
BBX 9 10 1 0
BITMAP
E380
4100
4100
8200
8200
8E00
7400
0400
0400
0E00
ENDCHAR

STARTCHAR afii10042
ENCODING 200
SWIDTH 1000 0
DWIDTH 14 0
BBX 15 10 0 0
BITMAP
39CE
1084
1084
2108
2108
2108
2108
4210
4210
FFF8
ENDCHAR

STARTCHAR afii10043
ENCODING 201
SWIDTH 1000 0
DWIDTH 14 0
BBX 15 12 0 -2
BITMAP
39CE
1084
1084
2108
2108
2108
2108
4210
4210
FFF8
0008
0008
ENDCHAR

STARTCHAR afii10044
ENCODING 202
SWIDTH 741 0
DWIDTH 9 0
BBX 9 10 0 0
BITMAP
FC00
8800
0800
1000
1F00
1080
1080
2080
2100
7E00
ENDCHAR

STARTCHAR afii10045
ENCODING 203
SWIDTH 979 0
DWIDTH 13 0
BBX 13 10 0 0
BITMAP
3838
1010
1010
2020
3E20
2120
4120
4140
4240
FCE0
ENDCHAR

STARTCHAR afii10046
ENCODING 204
SWIDTH 642 0
DWIDTH 8 0
BBX 8 10 0 0
BITMAP
38
10
10
20
3E
21
41
41
42
FC
ENDCHAR

STARTCHAR afii10047
ENCODING 205
SWIDTH 708 0
DWIDTH 10 0
BBX 9 10 1 0
BITMAP
1E00
2100
4080
0080
1F80
0080
0080
8100
8200
7C00
ENDCHAR

STARTCHAR afii10048
ENCODING 206
SWIDTH 1135 0
DWIDTH 16 0
BBX 16 10 0 0
BITMAP
383C
1042
1081
2101
3F01
2202
2202
4204
4108
E0F0
ENDCHAR

STARTCHAR afii10049
ENCODING 207
SWIDTH 698 0
DWIDTH 10 0
BBX 10 10 0 0
BITMAP
1FC0
2080
2080
2100
1F00
1100
1100
2200
2200
C700
ENDCHAR

STARTCHAR afii10065
ENCODING 208
SWIDTH 521 0
DWIDTH 7 0
BBX 7 7 1 0
BITMAP
1A
24
44
88
88
9A
6C
ENDCHAR

STARTCHAR afii10066
ENCODING 209
SWIDTH 448 0
DWIDTH 6 0
BBX 6 10 1 0
BITMAP
04
18
20
70
48
88
88
88
90
60
ENDCHAR

STARTCHAR afii10067
ENCODING 210
SWIDTH 385 0
DWIDTH 5 0
BBX 5 7 1 0
BITMAP
30
48
50
E0
90
90
60
ENDCHAR

STARTCHAR afii10068
ENCODING 211
SWIDTH 302 0
DWIDTH 4 0
BBX 4 7 0 0
BITMAP
60
90
10
60
80
A0
C0
ENDCHAR

STARTCHAR afii10069
ENCODING 212
SWIDTH 449 0
DWIDTH 6 0
BBX 5 10 1 0
BITMAP
40
20
10
30
48
48
88
90
90
60
ENDCHAR

STARTCHAR afii10070
ENCODING 213
SWIDTH 385 0
DWIDTH 5 0
BBX 5 7 1 0
BITMAP
30
48
88
F0
80
90
60
ENDCHAR

STARTCHAR afii10072
ENCODING 214
SWIDTH 875 0
DWIDTH 12 0
BBX 13 7 0 0
BITMAP
3130
4948
0940
0F80
1280
9290
6260
ENDCHAR

STARTCHAR afii10073
ENCODING 215
SWIDTH 365 0
DWIDTH 5 0
BBX 5 7 0 0
BITMAP
70
08
08
70
10
90
60
ENDCHAR

STARTCHAR afii10074
ENCODING 216
SWIDTH 531 0
DWIDTH 7 0
BBX 8 7 0 0
BITMAP
62
A2
22
44
4C
55
66
ENDCHAR

STARTCHAR afii10075
ENCODING 217
SWIDTH 531 0
DWIDTH 7 0
BBX 8 10 0 0
BITMAP
22
1C
00
62
A2
22
44
4C
55
66
ENDCHAR

STARTCHAR afii10076
ENCODING 218
SWIDTH 489 0
DWIDTH 7 0
BBX 6 7 1 0
BITMAP
CC
50
50
60
90
90
98
ENDCHAR

STARTCHAR afii10077
ENCODING 219
SWIDTH 490 0
DWIDTH 7 0
BBX 8 7 -1 0
BITMAP
06
0A
0A
12
14
25
C6
ENDCHAR

STARTCHAR afii10078
ENCODING 220
SWIDTH 586 0
DWIDTH 8 0
BBX 9 7 0 0
BITMAP
1100
1100
1B00
2B00
2D00
2900
C980
ENDCHAR

STARTCHAR afii10079
ENCODING 221
SWIDTH 525 0
DWIDTH 7 0
BBX 6 7 1 0
BITMAP
C8
48
48
70
90
94
98
ENDCHAR

STARTCHAR afii10080
ENCODING 222
SWIDTH 448 0
DWIDTH 6 0
BBX 5 7 1 0
BITMAP
30
48
88
88
88
90
60
ENDCHAR

STARTCHAR afii10081
ENCODING 223
SWIDTH 531 0
DWIDTH 7 0
BBX 8 7 0 0
BITMAP
6C
B2
22
22
44
45
46
ENDCHAR

STARTCHAR afii10082
ENCODING 224
SWIDTH 490 0
DWIDTH 7 0
BBX 7 11 0 -3
BITMAP
10
1C
72
A2
22
22
24
78
40
40
E0
ENDCHAR

STARTCHAR afii10083
ENCODING 225
SWIDTH 385 0
DWIDTH 5 0
BBX 5 7 1 0
BITMAP
38
48
80
80
80
90
60
ENDCHAR

STARTCHAR afii10084
ENCODING 226
SWIDTH 771 0
DWIDTH 11 0
BBX 10 7 1 0
BITMAP
6D80
B680
2480
2480
4900
4940
4980
ENDCHAR

STARTCHAR afii10085
ENCODING 227
SWIDTH 479 0
DWIDTH 7 0
BBX 8 10 -1 -3
BITMAP
32
51
11
09
09
06
04
08
90
60
ENDCHAR

STARTCHAR afii10086
ENCODING 228
SWIDTH 625 0
DWIDTH 9 0
BBX 8 13 1 -3
BITMAP
03
05
04
3E
49
89
89
91
92
7C
20
A0
C0
ENDCHAR

STARTCHAR afii10087
ENCODING 229
SWIDTH 490 0
DWIDTH 7 0
BBX 7 7 0 0
BITMAP
26
58
08
10
10
2A
C4
ENDCHAR

STARTCHAR afii10088
ENCODING 230
SWIDTH 521 0
DWIDTH 7 0
BBX 8 9 0 -2
BITMAP
62
A2
22
44
4C
55
66
04
08
ENDCHAR

STARTCHAR afii10089
ENCODING 231
SWIDTH 490 0
DWIDTH 7 0
BBX 7 7 0 0
BITMAP
64
A4
24
48
58
2A
0C
ENDCHAR

STARTCHAR afii10090
ENCODING 232
SWIDTH 792 0
DWIDTH 10 0
BBX 10 7 1 0
BITMAP
6480
A480
2480
4900
4900
5B40
6D80
ENDCHAR

STARTCHAR afii10091
ENCODING 233
SWIDTH 792 0
DWIDTH 10 0
BBX 10 9 1 -2
BITMAP
6480
A480
2480
4900
4900
5B40
6D80
0100
0200
ENDCHAR

STARTCHAR afii10092
ENCODING 234
SWIDTH 396 0
DWIDTH 5 0
BBX 4 7 1 0
BITMAP
F0
90
20
60
90
90
E0
ENDCHAR

STARTCHAR afii10093
ENCODING 235
SWIDTH 624 0
DWIDTH 9 0
BBX 8 7 1 0
BITMAP
C7
42
42
64
94
95
E6
ENDCHAR

STARTCHAR afii10094
ENCODING 236
SWIDTH 406 0
DWIDTH 5 0
BBX 4 7 1 0
BITMAP
C0
40
40
60
90
90
E0
ENDCHAR

STARTCHAR afii10095
ENCODING 237
SWIDTH 396 0
DWIDTH 6 0
BBX 5 7 1 0
BITMAP
70
08
08
38
08
90
60
ENDCHAR

STARTCHAR afii10096
ENCODING 238
SWIDTH 667 0
DWIDTH 9 0
BBX 8 7 1 0
BITMAP
C6
49
51
71
91
92
8C
ENDCHAR

STARTCHAR afii10097
ENCODING 239
SWIDTH 542 0
DWIDTH 8 0
BBX 7 7 1 0
BITMAP
1C
24
24
38
48
4A
CC
ENDCHAR

STARTCHAR afii61352
ENCODING 240
SWIDTH 1031 0
DWIDTH 14 0
BBX 14 10 0 0
BITMAP
1C30
0C40
0A40
0A88
1294
12A4
12A8
1110
2100
C178
ENDCHAR

STARTCHAR afii10071
ENCODING 241
SWIDTH 385 0
DWIDTH 5 0
BBX 6 9 1 0
BITMAP
6C
00
30
48
88
F0
80
90
60
ENDCHAR

STARTCHAR afii10099
ENCODING 242
SWIDTH 510 0
DWIDTH 7 0
BBX 6 12 1 -2
BITMAP
60
20
FC
40
58
64
44
84
88
88
10
60
ENDCHAR

STARTCHAR afii10100
ENCODING 243
SWIDTH 448 0
DWIDTH 6 0
BBX 7 10 0 0
BITMAP
04
08
00
7E
22
22
20
40
40
E0
ENDCHAR

STARTCHAR afii10101
ENCODING 244
SWIDTH 406 0
DWIDTH 6 0
BBX 5 7 1 0
BITMAP
38
40
80
E0
80
90
60
ENDCHAR

STARTCHAR afii10102
ENCODING 245
SWIDTH 333 0
DWIDTH 5 0
BBX 5 7 1 0
BITMAP
38
48
40
20
10
90
E0
ENDCHAR

STARTCHAR afii10103
ENCODING 246
SWIDTH 271 0
DWIDTH 4 0
BBX 4 10 1 0
BITMAP
10
00
00
60
A0
20
20
40
50
60
ENDCHAR

STARTCHAR afii10104
ENCODING 247
SWIDTH 271 0
DWIDTH 4 0
BBX 5 9 1 0
BITMAP
D8
00
60
A0
20
20
40
50
60
ENDCHAR

STARTCHAR afii10105
ENCODING 248
SWIDTH 240 0
DWIDTH 3 0
BBX 6 13 -2 -3
BITMAP
04
00
00
18
28
08
08
10
10
10
20
20
C0
ENDCHAR

STARTCHAR afii10106
ENCODING 249
SWIDTH 663 0
DWIDTH 9 0
BBX 9 7 0 0
BITMAP
0600
0A00
0A00
1300
1480
2480
C700
ENDCHAR

STARTCHAR afii10107
ENCODING 250
SWIDTH 691 0
DWIDTH 8 0
BBX 7 7 1 0
BITMAP
D8
48
48
7C
92
92
8C
ENDCHAR

STARTCHAR afii10108
ENCODING 251
SWIDTH 500 0
DWIDTH 7 0
BBX 6 10 1 0
BITMAP
60
20
FC
40
70
48
48
90
94
98
ENDCHAR

STARTCHAR afii10109
ENCODING 252
SWIDTH 489 0
DWIDTH 7 0
BBX 6 10 1 0
BITMAP
08
10
00
CC
50
50
60
90
90
98
ENDCHAR

STARTCHAR section
ENCODING 253
SWIDTH 458 0
DWIDTH 6 0
BBX 8 13 -1 -3
BITMAP
07
09
10
28
28
24
24
24
14
18
18
90
E0
ENDCHAR

STARTCHAR afii10110
ENCODING 254
SWIDTH 479 0
DWIDTH 7 0
BBX 8 13 -1 -3
BITMAP
11
0E
00
32
51
11
09
09
06
04
08
90
60
ENDCHAR

STARTCHAR afii10193
ENCODING 255
SWIDTH 531 0
DWIDTH 7 0
BBX 8 9 0 -2
BITMAP
62
A2
22
44
4C
55
66
40
80
ENDCHAR
ENDFONT
